<mxfile host="app.diagrams.net" modified="2023-05-09T17:11:56.008Z" agent="Mozilla/5.0 (Windows NT 10.0; Win64; x64) AppleWebKit/537.36 (KHTML, like Gecko) Chrome/112.0.0.0 Safari/537.36" etag="Uta9OMTqFn6vpP99zzHQ" version="21.2.9" type="device">
  <diagram name="Σελίδα-1" id="T4ZH2sorEPpoSqwO2T1b">
    <mxGraphModel dx="3226" dy="1854" grid="1" gridSize="10" guides="1" tooltips="1" connect="1" arrows="1" fold="1" page="1" pageScale="1" pageWidth="1654" pageHeight="1169" math="0" shadow="0">
      <root>
        <mxCell id="0" />
        <mxCell id="1" parent="0" />
        <mxCell id="ezf4-gH6cN3JM9fJLx7F-1" value="Ψυχολόγος" style="shape=umlActor;verticalLabelPosition=bottom;verticalAlign=top;html=1;" parent="1" vertex="1">
          <mxGeometry x="-1530" y="-1020" width="30" height="60" as="geometry" />
        </mxCell>
        <mxCell id="ezf4-gH6cN3JM9fJLx7F-2" value="" style="html=1;points=[];perimeter=orthogonalPerimeter;outlineConnect=0;targetShapes=umlLifeline;portConstraint=eastwest;newEdgeStyle={&quot;edgeStyle&quot;:&quot;elbowEdgeStyle&quot;,&quot;elbow&quot;:&quot;vertical&quot;,&quot;curved&quot;:0,&quot;rounded&quot;:0};" parent="1" vertex="1">
          <mxGeometry x="-1520" y="-890" width="10" height="520" as="geometry" />
        </mxCell>
        <mxCell id="ezf4-gH6cN3JM9fJLx7F-3" value="Λίστα με&lt;br&gt;ονόματα μαθητών και Μ.Ο. τους" style="shape=umlBoundary;whiteSpace=wrap;html=1;" parent="1" vertex="1">
          <mxGeometry x="-1135" y="-1120" width="115" height="80" as="geometry" />
        </mxCell>
        <mxCell id="ezf4-gH6cN3JM9fJLx7F-4" value=":Psychologist Starting Screen" style="rounded=0;whiteSpace=wrap;html=1;" parent="1" vertex="1">
          <mxGeometry x="-1350" y="-1020" width="120" height="60" as="geometry" />
        </mxCell>
        <mxCell id="ezf4-gH6cN3JM9fJLx7F-5" value="Αρχική οθόνη ψυχολόγου" style="shape=umlBoundary;whiteSpace=wrap;html=1;" parent="1" vertex="1">
          <mxGeometry x="-1340" y="-1120" width="100" height="80" as="geometry" />
        </mxCell>
        <mxCell id="ezf4-gH6cN3JM9fJLx7F-6" value="&lt;div&gt;:List of&lt;/div&gt;&lt;div&gt;student names and their Averages&lt;/div&gt;" style="rounded=0;whiteSpace=wrap;html=1;" parent="1" vertex="1">
          <mxGeometry x="-1137.5" y="-1020" width="120" height="60" as="geometry" />
        </mxCell>
        <mxCell id="ezf4-gH6cN3JM9fJLx7F-7" value="Ημερολόγιο" style="shape=umlBoundary;whiteSpace=wrap;html=1;" parent="1" vertex="1">
          <mxGeometry x="-745" y="-1120" width="100" height="80" as="geometry" />
        </mxCell>
        <mxCell id="ezf4-gH6cN3JM9fJLx7F-8" value="" style="html=1;points=[];perimeter=orthogonalPerimeter;outlineConnect=0;targetShapes=umlLifeline;portConstraint=eastwest;newEdgeStyle={&quot;edgeStyle&quot;:&quot;elbowEdgeStyle&quot;,&quot;elbow&quot;:&quot;vertical&quot;,&quot;curved&quot;:0,&quot;rounded&quot;:0};" parent="1" vertex="1">
          <mxGeometry x="-1295" y="-890" width="10" height="50" as="geometry" />
        </mxCell>
        <mxCell id="ezf4-gH6cN3JM9fJLx7F-9" value="Μήνυμα Επιτυχίας Αιτήματος" style="shape=umlBoundary;whiteSpace=wrap;html=1;" parent="1" vertex="1">
          <mxGeometry x="-580" y="-1120" width="130" height="80" as="geometry" />
        </mxCell>
        <mxCell id="ezf4-gH6cN3JM9fJLx7F-10" value="" style="html=1;points=[];perimeter=orthogonalPerimeter;outlineConnect=0;targetShapes=umlLifeline;portConstraint=eastwest;newEdgeStyle={&quot;edgeStyle&quot;:&quot;elbowEdgeStyle&quot;,&quot;elbow&quot;:&quot;vertical&quot;,&quot;curved&quot;:0,&quot;rounded&quot;:0};" parent="1" vertex="1">
          <mxGeometry x="-1082.5" y="-890" width="10" height="170" as="geometry" />
        </mxCell>
        <mxCell id="ezf4-gH6cN3JM9fJLx7F-11" value="" style="endArrow=classic;html=1;rounded=0;" parent="1" source="ezf4-gH6cN3JM9fJLx7F-2" edge="1">
          <mxGeometry width="50" height="50" relative="1" as="geometry">
            <mxPoint x="-1480" y="-860" as="sourcePoint" />
            <mxPoint x="-1290" y="-880" as="targetPoint" />
          </mxGeometry>
        </mxCell>
        <mxCell id="ezf4-gH6cN3JM9fJLx7F-12" value="click&lt;br style=&quot;border-color: var(--border-color);&quot;&gt;&quot;Προβολή Προόδου&lt;br style=&quot;border-color: var(--border-color);&quot;&gt;&amp;nbsp;μαθητών&quot;" style="edgeLabel;html=1;align=center;verticalAlign=middle;resizable=0;points=[];" parent="ezf4-gH6cN3JM9fJLx7F-11" vertex="1" connectable="0">
          <mxGeometry x="0.1867" y="-2" relative="1" as="geometry">
            <mxPoint x="-21" y="-32" as="offset" />
          </mxGeometry>
        </mxCell>
        <mxCell id="ezf4-gH6cN3JM9fJLx7F-13" value="" style="html=1;points=[];perimeter=orthogonalPerimeter;outlineConnect=0;targetShapes=umlLifeline;portConstraint=eastwest;newEdgeStyle={&quot;edgeStyle&quot;:&quot;elbowEdgeStyle&quot;,&quot;elbow&quot;:&quot;vertical&quot;,&quot;curved&quot;:0,&quot;rounded&quot;:0};" parent="1" vertex="1">
          <mxGeometry x="-870" y="-760" width="10" height="460" as="geometry" />
        </mxCell>
        <mxCell id="ezf4-gH6cN3JM9fJLx7F-14" value="" style="endArrow=classic;html=1;rounded=0;" parent="1" edge="1">
          <mxGeometry width="50" height="50" relative="1" as="geometry">
            <mxPoint x="-1285" y="-870" as="sourcePoint" />
            <mxPoint x="-1095" y="-870" as="targetPoint" />
          </mxGeometry>
        </mxCell>
        <mxCell id="ezf4-gH6cN3JM9fJLx7F-15" value="displayStudentAndAverages()" style="edgeLabel;html=1;align=center;verticalAlign=middle;resizable=0;points=[];" parent="ezf4-gH6cN3JM9fJLx7F-14" vertex="1" connectable="0">
          <mxGeometry x="0.2588" y="3" relative="1" as="geometry">
            <mxPoint x="-17" y="-7" as="offset" />
          </mxGeometry>
        </mxCell>
        <mxCell id="ezf4-gH6cN3JM9fJLx7F-16" value="" style="endArrow=classic;html=1;rounded=0;" parent="1" edge="1" target="p_SsZwCq_pXnTANkePY0-3">
          <mxGeometry width="50" height="50" relative="1" as="geometry">
            <mxPoint x="-1070" y="-850" as="sourcePoint" />
            <mxPoint x="-990" y="-850" as="targetPoint" />
          </mxGeometry>
        </mxCell>
        <mxCell id="ezf4-gH6cN3JM9fJLx7F-17" value="getStudents()" style="edgeLabel;html=1;align=center;verticalAlign=middle;resizable=0;points=[];" parent="ezf4-gH6cN3JM9fJLx7F-16" vertex="1" connectable="0">
          <mxGeometry x="0.3444" relative="1" as="geometry">
            <mxPoint x="-21" y="-10" as="offset" />
          </mxGeometry>
        </mxCell>
        <mxCell id="ezf4-gH6cN3JM9fJLx7F-18" value=":Student progress details" style="rounded=0;whiteSpace=wrap;html=1;" parent="1" vertex="1">
          <mxGeometry x="-945" y="-1020" width="120" height="60" as="geometry" />
        </mxCell>
        <mxCell id="ezf4-gH6cN3JM9fJLx7F-19" value="returnStudents()" style="html=1;verticalAlign=bottom;endArrow=open;dashed=1;endSize=8;edgeStyle=elbowEdgeStyle;elbow=vertical;curved=0;rounded=0;" parent="1" edge="1" source="p_SsZwCq_pXnTANkePY0-3">
          <mxGeometry relative="1" as="geometry">
            <mxPoint x="-1000" y="-810" as="sourcePoint" />
            <mxPoint x="-1072.5" y="-810" as="targetPoint" />
          </mxGeometry>
        </mxCell>
        <mxCell id="ezf4-gH6cN3JM9fJLx7F-20" value="" style="endArrow=classic;html=1;rounded=0;" parent="1" edge="1">
          <mxGeometry width="50" height="50" relative="1" as="geometry">
            <mxPoint x="-1505" y="-760" as="sourcePoint" />
            <mxPoint x="-1090" y="-760" as="targetPoint" />
          </mxGeometry>
        </mxCell>
        <mxCell id="ezf4-gH6cN3JM9fJLx7F-21" value="selectStudent()" style="edgeLabel;html=1;align=center;verticalAlign=middle;resizable=0;points=[];" parent="ezf4-gH6cN3JM9fJLx7F-20" vertex="1" connectable="0">
          <mxGeometry x="0.1867" y="-2" relative="1" as="geometry">
            <mxPoint x="-28" y="-12" as="offset" />
          </mxGeometry>
        </mxCell>
        <mxCell id="ezf4-gH6cN3JM9fJLx7F-22" value="" style="html=1;points=[];perimeter=orthogonalPerimeter;outlineConnect=0;targetShapes=umlLifeline;portConstraint=eastwest;newEdgeStyle={&quot;edgeStyle&quot;:&quot;elbowEdgeStyle&quot;,&quot;elbow&quot;:&quot;vertical&quot;,&quot;curved&quot;:0,&quot;rounded&quot;:0};" parent="1" vertex="1">
          <mxGeometry x="-700" y="-610" width="10" height="60" as="geometry" />
        </mxCell>
        <mxCell id="ezf4-gH6cN3JM9fJLx7F-23" value="" style="endArrow=classic;html=1;rounded=0;" parent="1" edge="1" target="ezf4-gH6cN3JM9fJLx7F-13">
          <mxGeometry width="50" height="50" relative="1" as="geometry">
            <mxPoint x="-1072.5" y="-740" as="sourcePoint" />
            <mxPoint x="-1000" y="-739" as="targetPoint" />
            <Array as="points">
              <mxPoint x="-930" y="-740" />
            </Array>
          </mxGeometry>
        </mxCell>
        <mxCell id="ezf4-gH6cN3JM9fJLx7F-24" value="showDetails()" style="edgeLabel;html=1;align=center;verticalAlign=middle;resizable=0;points=[];" parent="ezf4-gH6cN3JM9fJLx7F-23" vertex="1" connectable="0">
          <mxGeometry x="0.2923" relative="1" as="geometry">
            <mxPoint x="-75" y="-10" as="offset" />
          </mxGeometry>
        </mxCell>
        <mxCell id="ezf4-gH6cN3JM9fJLx7F-25" value="" style="endArrow=classic;html=1;rounded=0;" parent="1" edge="1" target="ezf4-gH6cN3JM9fJLx7F-22" source="ezf4-gH6cN3JM9fJLx7F-13">
          <mxGeometry width="50" height="50" relative="1" as="geometry">
            <mxPoint x="-880" y="-650" as="sourcePoint" />
            <mxPoint x="-700" y="-650" as="targetPoint" />
            <Array as="points">
              <mxPoint x="-820" y="-590" />
            </Array>
          </mxGeometry>
        </mxCell>
        <mxCell id="ezf4-gH6cN3JM9fJLx7F-26" value="setDateAndTime()" style="edgeLabel;html=1;align=center;verticalAlign=middle;resizable=0;points=[];" parent="ezf4-gH6cN3JM9fJLx7F-25" vertex="1" connectable="0">
          <mxGeometry x="0.1662" y="4" relative="1" as="geometry">
            <mxPoint x="-15" y="-6" as="offset" />
          </mxGeometry>
        </mxCell>
        <mxCell id="ezf4-gH6cN3JM9fJLx7F-27" value=":Exam Paper &amp;amp; Corrections" style="rounded=0;whiteSpace=wrap;html=1;" parent="1" vertex="1">
          <mxGeometry x="-755" y="-1020" width="120" height="60" as="geometry" />
        </mxCell>
        <mxCell id="ezf4-gH6cN3JM9fJLx7F-29" value=":Request Success Message" style="rounded=0;whiteSpace=wrap;html=1;" parent="1" vertex="1">
          <mxGeometry x="-575" y="-1020" width="120" height="60" as="geometry" />
        </mxCell>
        <mxCell id="ezf4-gH6cN3JM9fJLx7F-31" value="" style="endArrow=classic;html=1;rounded=0;" parent="1" source="ezf4-gH6cN3JM9fJLx7F-2" target="ezf4-gH6cN3JM9fJLx7F-13" edge="1">
          <mxGeometry width="50" height="50" relative="1" as="geometry">
            <mxPoint x="-1500" y="-670" as="sourcePoint" />
            <mxPoint x="-900" y="-600" as="targetPoint" />
            <Array as="points">
              <mxPoint x="-1120" y="-620" />
              <mxPoint x="-980" y="-620" />
            </Array>
          </mxGeometry>
        </mxCell>
        <mxCell id="ezf4-gH6cN3JM9fJLx7F-32" value="worryingPerformance()" style="edgeLabel;html=1;align=center;verticalAlign=middle;resizable=0;points=[];" parent="ezf4-gH6cN3JM9fJLx7F-31" vertex="1" connectable="0">
          <mxGeometry x="0.1867" y="-2" relative="1" as="geometry">
            <mxPoint x="-28" y="-12" as="offset" />
          </mxGeometry>
        </mxCell>
        <mxCell id="ezf4-gH6cN3JM9fJLx7F-33" value="" style="html=1;points=[];perimeter=orthogonalPerimeter;outlineConnect=0;targetShapes=umlLifeline;portConstraint=eastwest;newEdgeStyle={&quot;edgeStyle&quot;:&quot;elbowEdgeStyle&quot;,&quot;elbow&quot;:&quot;vertical&quot;,&quot;curved&quot;:0,&quot;rounded&quot;:0};" parent="1" vertex="1">
          <mxGeometry x="-520" y="-570" width="10" height="330" as="geometry" />
        </mxCell>
        <mxCell id="ezf4-gH6cN3JM9fJLx7F-34" value="" style="endArrow=classic;html=1;rounded=0;" parent="1" edge="1">
          <mxGeometry width="50" height="50" relative="1" as="geometry">
            <mxPoint x="-690" y="-560" as="sourcePoint" />
            <mxPoint x="-520" y="-560" as="targetPoint" />
          </mxGeometry>
        </mxCell>
        <mxCell id="ezf4-gH6cN3JM9fJLx7F-35" value="notificationOfAcceptance()" style="edgeLabel;html=1;align=center;verticalAlign=middle;resizable=0;points=[];" parent="ezf4-gH6cN3JM9fJLx7F-34" vertex="1" connectable="0">
          <mxGeometry x="0.1662" y="4" relative="1" as="geometry">
            <mxPoint x="-15" y="-6" as="offset" />
          </mxGeometry>
        </mxCell>
        <mxCell id="ezf4-gH6cN3JM9fJLx7F-40" value="Alternative" style="shape=umlFrame;whiteSpace=wrap;html=1;pointerEvents=0;fillColor=#dae8fc;strokeColor=#6c8ebf;width=70;height=39;" parent="1" vertex="1">
          <mxGeometry x="-1610" y="-650" width="1220" height="430" as="geometry" />
        </mxCell>
        <mxCell id="ezf4-gH6cN3JM9fJLx7F-41" value="" style="endArrow=none;dashed=1;html=1;rounded=0;fillColor=#dae8fc;strokeColor=#6c8ebf;entryX=0.999;entryY=0.523;entryDx=0;entryDy=0;entryPerimeter=0;exitX=0;exitY=0.524;exitDx=0;exitDy=0;exitPerimeter=0;" parent="1" source="ezf4-gH6cN3JM9fJLx7F-40" target="ezf4-gH6cN3JM9fJLx7F-40" edge="1">
          <mxGeometry width="50" height="50" relative="1" as="geometry">
            <mxPoint x="-1600" y="-429" as="sourcePoint" />
            <mxPoint x="-810" y="-430" as="targetPoint" />
          </mxGeometry>
        </mxCell>
        <mxCell id="ezf4-gH6cN3JM9fJLx7F-42" value="" style="endArrow=classic;html=1;rounded=0;" parent="1" edge="1" target="ezf4-gH6cN3JM9fJLx7F-13">
          <mxGeometry width="50" height="50" relative="1" as="geometry">
            <mxPoint x="-1510" y="-390" as="sourcePoint" />
            <mxPoint x="-890" y="-390" as="targetPoint" />
            <Array as="points">
              <mxPoint x="-990" y="-390" />
            </Array>
          </mxGeometry>
        </mxCell>
        <mxCell id="ezf4-gH6cN3JM9fJLx7F-43" value="normalPerformance()" style="edgeLabel;html=1;align=center;verticalAlign=middle;resizable=0;points=[];" parent="ezf4-gH6cN3JM9fJLx7F-42" vertex="1" connectable="0">
          <mxGeometry x="0.1867" y="-2" relative="1" as="geometry">
            <mxPoint x="-28" y="-12" as="offset" />
          </mxGeometry>
        </mxCell>
        <mxCell id="ezf4-gH6cN3JM9fJLx7F-46" value="" style="endArrow=classic;html=1;rounded=0;" parent="1" target="ezf4-gH6cN3JM9fJLx7F-33" edge="1" source="ezf4-gH6cN3JM9fJLx7F-13">
          <mxGeometry width="50" height="50" relative="1" as="geometry">
            <mxPoint x="-850" y="-320" as="sourcePoint" />
            <mxPoint x="-710" y="-320" as="targetPoint" />
            <Array as="points">
              <mxPoint x="-810" y="-320" />
            </Array>
          </mxGeometry>
        </mxCell>
        <mxCell id="ezf4-gH6cN3JM9fJLx7F-47" value="deleteRequestAndExit()" style="edgeLabel;html=1;align=center;verticalAlign=middle;resizable=0;points=[];" parent="ezf4-gH6cN3JM9fJLx7F-46" vertex="1" connectable="0">
          <mxGeometry x="0.1662" y="4" relative="1" as="geometry">
            <mxPoint x="-15" y="-6" as="offset" />
          </mxGeometry>
        </mxCell>
        <mxCell id="FsMF18RkWST1xx5ECoAD-2" value="Λεπτομέρειες προόδου Μαθητή" style="shape=umlBoundary;whiteSpace=wrap;html=1;" parent="1" vertex="1">
          <mxGeometry x="-935" y="-1120" width="100" height="80" as="geometry" />
        </mxCell>
        <mxCell id="p_SsZwCq_pXnTANkePY0-2" value="Μαθητής" style="ellipse;shape=umlEntity;whiteSpace=wrap;html=1;" vertex="1" parent="1">
          <mxGeometry x="-1020" y="-970" width="80" height="80" as="geometry" />
        </mxCell>
        <mxCell id="p_SsZwCq_pXnTANkePY0-3" value="" style="html=1;points=[];perimeter=orthogonalPerimeter;outlineConnect=0;targetShapes=umlLifeline;portConstraint=eastwest;newEdgeStyle={&quot;edgeStyle&quot;:&quot;elbowEdgeStyle&quot;,&quot;elbow&quot;:&quot;vertical&quot;,&quot;curved&quot;:0,&quot;rounded&quot;:0};" vertex="1" parent="1">
          <mxGeometry x="-985" y="-870" width="10" height="210" as="geometry" />
        </mxCell>
        <mxCell id="p_SsZwCq_pXnTANkePY0-5" value="" style="endArrow=classic;html=1;rounded=0;" edge="1" parent="1" source="ezf4-gH6cN3JM9fJLx7F-13">
          <mxGeometry width="50" height="50" relative="1" as="geometry">
            <mxPoint x="-890" y="-700" as="sourcePoint" />
            <mxPoint x="-970" y="-700" as="targetPoint" />
          </mxGeometry>
        </mxCell>
        <mxCell id="p_SsZwCq_pXnTANkePY0-6" value="getStudentInfo()" style="edgeLabel;html=1;align=center;verticalAlign=middle;resizable=0;points=[];" vertex="1" connectable="0" parent="p_SsZwCq_pXnTANkePY0-5">
          <mxGeometry x="0.3444" relative="1" as="geometry">
            <mxPoint x="18" y="-10" as="offset" />
          </mxGeometry>
        </mxCell>
        <mxCell id="p_SsZwCq_pXnTANkePY0-7" value="returnStudentInfo()" style="html=1;verticalAlign=bottom;endArrow=open;dashed=1;endSize=8;edgeStyle=elbowEdgeStyle;elbow=vertical;curved=0;rounded=0;exitX=1.5;exitY=0.952;exitDx=0;exitDy=0;exitPerimeter=0;" edge="1" parent="1" source="p_SsZwCq_pXnTANkePY0-3" target="ezf4-gH6cN3JM9fJLx7F-13">
          <mxGeometry x="-0.0025" relative="1" as="geometry">
            <mxPoint x="-737.5" y="-765.42" as="sourcePoint" />
            <mxPoint x="-825" y="-765.42" as="targetPoint" />
            <mxPoint as="offset" />
          </mxGeometry>
        </mxCell>
        <mxCell id="p_SsZwCq_pXnTANkePY0-8" value="" style="endArrow=classic;html=1;rounded=0;" edge="1" parent="1" source="ezf4-gH6cN3JM9fJLx7F-33" target="ezf4-gH6cN3JM9fJLx7F-33">
          <mxGeometry width="50" height="50" relative="1" as="geometry">
            <mxPoint x="-500" y="-520" as="sourcePoint" />
            <mxPoint x="-500" y="-490" as="targetPoint" />
            <Array as="points">
              <mxPoint x="-460" y="-520" />
              <mxPoint x="-460" y="-490" />
            </Array>
          </mxGeometry>
        </mxCell>
        <mxCell id="p_SsZwCq_pXnTANkePY0-9" value="requestSuccesfull()" style="edgeLabel;html=1;align=center;verticalAlign=middle;resizable=0;points=[];" vertex="1" connectable="0" parent="p_SsZwCq_pXnTANkePY0-8">
          <mxGeometry x="0.1342" y="1" relative="1" as="geometry">
            <mxPoint x="4" y="18" as="offset" />
          </mxGeometry>
        </mxCell>
        <mxCell id="p_SsZwCq_pXnTANkePY0-10" value="" style="endArrow=classic;html=1;rounded=0;" edge="1" parent="1">
          <mxGeometry width="50" height="50" relative="1" as="geometry">
            <mxPoint x="-510" y="-300" as="sourcePoint" />
            <mxPoint x="-510" y="-270" as="targetPoint" />
            <Array as="points">
              <mxPoint x="-460" y="-300" />
              <mxPoint x="-460" y="-270" />
            </Array>
          </mxGeometry>
        </mxCell>
        <mxCell id="p_SsZwCq_pXnTANkePY0-11" value="requestSuccesfull()" style="edgeLabel;html=1;align=center;verticalAlign=middle;resizable=0;points=[];" vertex="1" connectable="0" parent="p_SsZwCq_pXnTANkePY0-10">
          <mxGeometry x="0.1342" y="1" relative="1" as="geometry">
            <mxPoint x="4" y="18" as="offset" />
          </mxGeometry>
        </mxCell>
      </root>
    </mxGraphModel>
  </diagram>
</mxfile>
